<svg width="36" height="37" viewBox="0 0 36 37" fill="none" xmlns="http://www.w3.org/2000/svg">
<path d="M17.8228 0.819824C7.97901 0.819824 0 8.79884 0 18.6426C0 28.4852 7.97901 36.4654 17.8228 36.4654C27.6665 36.4654 35.6455 28.4852 35.6455 18.6426C35.6455 8.79884 27.6665 0.819824 17.8228 0.819824ZM25.6202 19.7565H13.8283L18.4187 24.347C18.8543 24.7825 18.8543 25.4876 18.4187 25.922C17.9831 26.3576 17.2781 26.3576 16.8436 25.922L10.5422 19.6206C10.2759 19.3544 10.1924 18.9879 10.2536 18.6426C10.1924 18.2973 10.2759 17.9308 10.5433 17.6635L16.8447 11.362C17.2803 10.9264 17.9854 10.9264 18.4198 11.362C18.8554 11.7975 18.8554 12.5027 18.4198 12.9371L13.8283 17.5287H25.6202C26.2351 17.5287 26.7342 18.0277 26.7342 18.6426C26.7342 19.2575 26.2351 19.7565 25.6202 19.7565Z" fill="#2A2A2A"/>
</svg>
